<?xml version="1.0" standalone="no"?><!DOCTYPE svg PUBLIC "-//W3C//DTD SVG 1.1//EN" "http://www.w3.org/Graphics/SVG/1.1/DTD/svg11.dtd"><svg t="1625730674053" class="icon" viewBox="0 0 1024 1024" version="1.1" xmlns="http://www.w3.org/2000/svg" p-id="2257" xmlns:xlink="http://www.w3.org/1999/xlink" width="200" height="200"><defs><style type="text/css"></style></defs><path d="M603.306667 170.666667l85.333333 64-64 106.666666s-42.666667-106.666667-21.333333-170.666666zM874.666667 170.666667l-85.333334 64 64 106.666666s42.666667-106.666667 21.333334-170.666666z" fill="#37474F" p-id="2258"></path><path d="M576 640l106.666667 213.418667S682.666667 896 725.333333 896h85.333334s0-42.666667-42.666667-42.666667l-64-149.333333 42.666667-170.666667-170.666667 106.666667zM213.333333 704.042667l42.666667 149.376S261.333333 896 298.666667 896h85.333333s0-42.666667-42.666667-42.666667l-42.666666-127.978666-85.333334-21.312z" fill="#455A64" p-id="2259"></path><path d="M405.333333 661.376c-42.666667 64-106.666667 106.666667-106.666666 106.666667l-85.333334-64s21.333333-85.333333 21.333334-192l170.666666 149.333333z" fill="#455A64" p-id="2260"></path><path d="M576 661.333333c-89.664-32.597333-170.666667 0.042667-170.666667 0.042667L234.666667 661.333333V405.333333c149.333333-256 533.333333 42.666667 533.333333 42.666667s0.746667 8.170667 0.554667 21.312C767.786667 526.634667 749.546667 678.677333 576 661.333333z" fill="#455A64" p-id="2261"></path><path d="M258.133333 460.8h-29.866666c-68.181333 0-121.6-53.418667-121.6-121.6s53.418667-121.6 121.6-121.6h29.866666c32.832 0 57.6-24.768 57.6-57.6a32 32 0 0 1 64 0c0 68.181333-53.418667 121.6-121.6 121.6h-29.866666c-32.832 0-57.6 24.746667-57.6 57.578667s24.768 57.6 57.6 57.6h29.866666a32 32 0 0 1 0 64.021333z" fill="#455A64" p-id="2262"></path><path d="M736 352m-138.666667 0a138.666667 138.666667 0 1 0 277.333334 0 138.666667 138.666667 0 1 0-277.333334 0Z" fill="#455A64" p-id="2263"></path><path d="M256 853.418667l-29.269333-102.464L192 832s0 64 42.666667 64h64c-37.333333 0-42.666667-42.581333-42.666667-42.581333zM683.157333 858.752A43.818667 43.818667 0 0 0 661.333333 853.376v-42.645333l-74.432-148.906667c-3.690667-0.234667-7.061333-0.106667-10.901333-0.490667v192.128s0 42.581333 42.666667 42.581334h85.333333s-0.085333-2.24-0.512-5.418667c-14.869333-8.213333-19.2-23.68-20.330667-31.872zM405.333333 661.376c-29.162667 43.754667-67.882667 77.12-89.706666 94.101333 0 0-1.28 0.896-2.368 1.877334a19.2 19.2 0 0 1-0.789334 0.597333l0.021334 0.042667c-1.152 0.917333-2.24 1.664-2.368 1.770666l5.610666 16.768 4.266667-8.533333s85.333333-42.624 128-106.624l10.304-12.373333c-32.149333 4.010667-52.970667 12.373333-52.970667 12.373333zM736 490.666667a138.666667 138.666667 0 0 1-138.666667-138.666667c0-1.621333 0.192-3.178667 0.256-4.8a663.552 663.552 0 0 0-41.472-16.96A178.346667 178.346667 0 0 0 554.666667 352c0 100.010667 81.344 181.333333 181.333333 181.333333a182.826667 182.826667 0 0 0 25.258667-1.962666c3.669333-16.192 5.610667-31.445333 6.506666-44.501334A137.877333 137.877333 0 0 1 736 490.666667zM746.666667 405.333333s-11.562667 16-21.333334 0l-21.333333-21.312v-21.333333L768.021333 362.666667v21.333333L746.666667 405.333333z" fill="#263238" p-id="2264"></path><path d="M832 298.666667s6.229333 63.978667-32 63.978666L768.021333 362.666667s-7.125333-64 31.978667-64H832zM640 298.688S632.021333 362.666667 672 362.666667l32 0.021333S712.021333 298.666667 672 298.666667l-32 0.021333z" fill="#FFEB3B" p-id="2265"></path></svg>