<svg xmlns="http://www.w3.org/2000/svg" viewBox="0 0 800 800"><defs><style>.cls-1{fill:#bbb49b;}.cls-2{fill:#f1ecd9;}.cls-3{fill:#9f9577;}.cls-4{fill:#887f62;}.cls-5{fill:#fffcfc;}.cls-6{fill:#7f6490;}.cls-7{fill:#1c192d;}</style></defs><title>我想要这样的2021年最新</title><g id="幸福的猫吃鱼"><path class="cls-1" d="M546.23,530.32l-1.5-.79c22.55-3.84,28.69-52.92,19.07-64.56-11.55-14,.06-42.27-14.56-66.54,26.38-11,36,23.83,80.73,37.81,23.17,7.24,43.36,4.68,42.67-6.61a14.88,14.88,0,0,0-2.89-8.59c8.34,3.86,12.4,7.57,12.9,15.59.68,11.29-4.34,20.06-45.61,13.3-46.25-7.59-70.54-45.28-75.09-45.28,19.75,21.94,1.2,43.52,12.76,57.51,9.61,11.64,2.57,70.53-20,74.37a85.86,85.86,0,0,1-14,1.25C540.75,534.84,543.11,531.77,546.23,530.32Z"/><path class="cls-2" d="M532.84,530.74a53.51,53.51,0,0,1-7.41-.23c-.2-3.91,3.17-8.59,8.86-11.84,15-8.56,16.26-46.66,16.26-46.66l-.18-12.15a55.71,55.71,0,0,1-5.62.07,21.86,21.86,0,0,0-36.41-14.87c-5.86-5.33-9.83-11.26-11.3-16.35-29.08,16.94-86.42,18.84-86.42,18.84C427,473.2,431.22,524.43,426.56,530c-2.23,2.65-7,4.15-12.22,4.61a39.57,39.57,0,0,1-9.38-.25,19.56,19.56,0,0,1,5.05-6.62c-1.43-7.84-8.38-40-18.35-46.07-2.47-1.49-7.64-3.38-14.29-5.58a21.86,21.86,0,1,0-40.79-13.5q-3-1.05-5.77-2.18c-4.47-1.74-8.66-3.55-12.36-5.38-20.74,38.48-66.68,73.59-66.68,73.59s-1.54.29-4,.65a136.35,136.35,0,0,1-14.35,1.39,58.5,58.5,0,0,1-10-.4h0c.62-5.54,7.05-11,19.21-13.14,17.32-3.05,39.14-75.77,36.54-94.46,2,.08,4,.13,6.09.13A249.38,249.38,0,0,0,327,419.53c18.92-3.27,31.29-8.72,31.29-14.88,0-1.81-1.06-3.55-3.05-5.21a40.34,40.34,0,0,0,9.71-26,39.7,39.7,0,0,0-6.66-21.88c5.47-.94,11.29-2,17.37-3.13l2,.75a23.8,23.8,0,1,0,47.6,0,23.5,23.5,0,0,0-1.77-9c44.62-6.75,92.39-9.9,121.61,6.48,13.29,11,25.39,20,36.38,27.44a350.34,350.34,0,0,0,46.06,28.5A21.87,21.87,0,0,0,667.53,420c.78.34,1.52.67,2.22,1a14.88,14.88,0,0,1,2.89,8.59c.69,11.29-19.5,13.85-42.67,6.61-44.74-14-54.35-48.77-80.73-37.81,14.62,24.27,3,52.55,14.56,66.54,9.62,11.64,3.48,60.72-19.07,64.56A87.09,87.09,0,0,1,532.84,530.74Zm-1.28-162.9a21.86,21.86,0,1,0-21.85,21.86A21.86,21.86,0,0,0,531.56,367.84Zm-73.1,44.41A21.86,21.86,0,1,0,436.6,434.1,21.86,21.86,0,0,0,458.46,412.25Z"/><path class="cls-3" d="M667.53,420a21.87,21.87,0,0,1-40.08-17.44C645.45,411.78,658.59,416.17,667.53,420Z"/><path class="cls-2" d="M553.78,352.65c9.84,8.17,19,15.27,27.61,21.45-11-7.45-23.09-16.45-36.38-27.44A57.45,57.45,0,0,1,553.78,352.65Z"/><path class="cls-1" d="M550.37,459.86l.18,12.15a75.31,75.31,0,0,1-8.28-.46,21.69,21.69,0,0,0,2.53-10.22c0-.47,0-.94,0-1.4A55.71,55.71,0,0,0,550.37,459.86Z"/><path class="cls-1" d="M544.73,529.53l1.5.79c-3.12,1.45-5.48,4.52-5.48,7.46a33.74,33.74,0,0,1-9.91-1.19,12.65,12.65,0,0,1,2-5.85A87.09,87.09,0,0,0,544.73,529.53Z"/><path class="cls-4" d="M544.75,459.93c0,.46,0,.93,0,1.4a21.69,21.69,0,0,1-2.53,10.22l-.94-.1c-10.66-1.21-28.16-5-39.19-16.86a21.93,21.93,0,0,1,6.2-9.53A57.63,57.63,0,0,0,544.75,459.93Z"/><path class="cls-3" d="M523,439.47a21.84,21.84,0,0,1,21.8,20.46,57.63,57.63,0,0,1-36.41-14.87A21.83,21.83,0,0,1,523,439.47Z"/><path class="cls-2" d="M525.43,530.51a53.51,53.51,0,0,0,7.41.23,12.65,12.65,0,0,0-2,5.85,9.33,9.33,0,0,1-2.06-.9A6.21,6.21,0,0,1,525.43,530.51Z"/><circle class="cls-3" cx="509.71" cy="367.84" r="21.86"/><path class="cls-2" d="M496.94,531c-7,.52-14.2.45-15.23-1.72-1.94-4.06-2.67-13.87,6.14-16.24s15-26.65,15-26.65c-13.54-3.73-26.41-13.55-37.74-25.05a165.07,165.07,0,0,0,32-13.55,36.49,36.49,0,0,0,5,6.81c11,11.86,28.53,15.65,39.19,16.86-6.17,28.08-26.72,57.21-30.44,57.89C509.15,529.65,503.1,530.55,496.94,531Z"/><path class="cls-1" d="M429.78,466.33c9.59,28.54,10.61,69.09,6.77,73.66-3.3,4-12.31,5.35-19.89,4.57a26.26,26.26,0,0,1-7.61-1.8c0-.93,1.46-6.26,5.29-8.16,5.21-.46,10-2,12.22-4.61,4.66-5.56.45-56.79-15.94-82.44,0,0,57.34-1.9,86.42-18.84,1.47,5.09,5.44,11,11.3,16.35a21.93,21.93,0,0,0-6.2,9.53,36.49,36.49,0,0,1-5-6.81,165.07,165.07,0,0,1-32,13.55c-10.51,3.17-22.51,5.51-34.22,5Z"/><circle class="cls-3" cx="436.6" cy="412.25" r="21.86"/><path class="cls-3" d="M423.4,340.18a23.5,23.5,0,0,1,1.77,9,23.8,23.8,0,1,1-47.6,0l-2-.75C390.33,345.75,406.64,342.71,423.4,340.18Z"/><path class="cls-2" d="M405,534.35a39.57,39.57,0,0,0,9.38.25c-3.83,1.9-5.29,7.23-5.29,8.16a9,9,0,0,1-3.13-2.06A5.69,5.69,0,0,1,405,534.35Z"/><path class="cls-3" d="M380.1,465.49a21.78,21.78,0,0,1-2.73,10.59c-11.3-3.74-26.86-8.37-40.79-13.5a21.86,21.86,0,0,1,43.52,2.91Z"/><path class="cls-1" d="M364.9,373.45a40.34,40.34,0,0,1-9.71,26,28.2,28.2,0,0,0-7-4,39.79,39.79,0,0,0,6.73-22c0-16.86-10.85-31.52-26.85-39.08a20.48,20.48,0,0,0,1.47-3.19h0a54,54,0,0,1,17.06,8.25h0a46.67,46.67,0,0,1,11.67,12.14A39.7,39.7,0,0,1,364.9,373.45Z"/><path class="cls-5" d="M348.16,395.46a28.2,28.2,0,0,1,7,4c2,1.66,3.05,3.4,3.05,5.21,0,6.16-12.37,11.61-31.29,14.88,0,0-7.47-18.39-.42-29.83h0C335.32,391.2,342.73,393.16,348.16,395.46Zm-10.66,5.77c0-.57-.33-1-.77-1s-.76.47-.76,1,.34,1,.76,1S337.5,401.8,337.5,401.23Z"/><path class="cls-2" d="M354.89,373.45a39.79,39.79,0,0,1-6.73,22c-5.43-2.3-12.84-4.26-21.63-5.77q-4.25-.72-8.91-1.29a14.06,14.06,0,0,1-5.7,3.34l-.53-2a4,4,0,0,0,1.24-2.78c0-2.75-3.26-5-7.27-5s-7.27,2.23-7.27,5a3.41,3.41,0,0,0,.33,1.48l-2.55,1.26a10.36,10.36,0,0,1-2.77-2.89l-.09-.14c-2.54-.06-5.12-.11-7.73-.11a144.2,144.2,0,0,0-20.67,1.53,39.18,39.18,0,0,1-2.84-14.6,39.68,39.68,0,0,1,6.16-21.12,49,49,0,0,1,21.67-18.41h0a21.86,21.86,0,0,0,38.43.44C344,341.93,354.89,356.59,354.89,373.45ZM326,369a2.52,2.52,0,1,0-2.47,3A2.78,2.78,0,0,0,326,369Zm-36.06,0a2.52,2.52,0,1,0-2.47,3A2.78,2.78,0,0,0,289.91,369Z"/><path class="cls-2" d="M343.23,308.17c3,1.49,3.38,19.4,3.34,31.25a54,54,0,0,0-17.06-8.25,55.58,55.58,0,0,0-6.4-1.44C328.63,321.84,339.91,306.51,343.23,308.17Z"/><path class="cls-1" d="M323.11,329.73a55.58,55.58,0,0,1,6.4,1.44h0a20.48,20.48,0,0,1-1.47,3.19,57.24,57.24,0,0,0-19.73-5.23c1.65-.14,3.33-.21,5-.21A60.41,60.41,0,0,1,323.11,329.73Z"/><path class="cls-6" d="M279.19,422.65c-37.45-1.66-66.87-18-66.87-18a168.21,168.21,0,0,1,52.29-16.6,144.2,144.2,0,0,1,20.67-1.53c2.61,0,5.19.05,7.73.11l.09.14a10.36,10.36,0,0,0,2.77,2.89,17.63,17.63,0,0,0,10.13,3,19.64,19.64,0,0,0,5.92-.89,14.06,14.06,0,0,0,5.7-3.34q4.67.57,8.91,1.29h0c-7,11.44.42,29.83.42,29.83a249.38,249.38,0,0,1-41.67,3.25C283.23,422.78,281.2,422.73,279.19,422.65Z"/><path class="cls-7" d="M323.5,366a3.07,3.07,0,1,1-2.48,3A2.78,2.78,0,0,1,323.5,366Z"/><path class="cls-3" d="M289.69,333.88a57.47,57.47,0,0,1,18.62-4.74A57.24,57.24,0,0,1,328,334.37a21.86,21.86,0,0,1-38.43-.44h0Z"/><path class="cls-1" d="M248.15,531.71l-.37-2.45c2.45-.36,4-.65,4-.65S297.71,493.5,318.45,455c3.7,1.83,7.89,3.64,12.36,5.38-19.36,40.24-69,78.21-69,78.21a134.89,134.89,0,0,1-21,2.09l0-.71C239.82,535.62,244.26,532.36,248.15,531.71Z"/><path class="cls-7" d="M298.42,388.4a3.41,3.41,0,0,1-.33-1.48c0-2.75,3.26-5,7.27-5s7.27,2.23,7.27,5a4,4,0,0,1-1.24,2.78l.53,2a19.64,19.64,0,0,1-5.92.89,17.63,17.63,0,0,1-10.13-3Z"/><path class="cls-2" d="M289.69,333.88l-.09,0a49,49,0,0,0-21.67,18.41c-.18-10.06-.3-35.89,3.28-37.68C274.22,313.14,283.82,325.66,289.69,333.88Z"/><path class="cls-7" d="M287.44,366a3.07,3.07,0,1,1-2.48,3A2.78,2.78,0,0,1,287.44,366Z"/><path class="cls-1" d="M247.78,529.26l.37,2.45c-3.89.65-8.33,3.91-7.39,8.28l0,.71A44.46,44.46,0,0,1,232,540a10.81,10.81,0,0,1,1.44-9.34A136.35,136.35,0,0,0,247.78,529.26Z"/><path class="cls-1" d="M233.43,530.65A10.81,10.81,0,0,0,232,540c-2.75-.54-5-1.46-6.23-2.92a8.81,8.81,0,0,1-2.32-6.82h0A58.5,58.5,0,0,0,233.43,530.65Z"/><path class="cls-6" d="M212.32,404.65c-12.58,11.22-33.31,6.68-33.31,6.68l9-8.89-9-9.56C196.9,390.63,212.32,404.65,212.32,404.65Z"/><path class="cls-7" d="M355.19,403.44a4,4,0,0,1-3-6.66,35.49,35.49,0,0,0,2.7-43,42.72,42.72,0,0,0-10.68-11.1,4,4,0,0,1,4.71-6.47,50.59,50.59,0,0,1,12.66,13.19A43.47,43.47,0,0,1,358.26,402a4.75,4.75,0,0,1-.38.4A4,4,0,0,1,355.19,403.44Zm0-4h0Z"/><path class="cls-7" d="M264.61,392.05a4,4,0,0,1-3.71-2.51,42.91,42.91,0,0,1-3.13-16.09,43.83,43.83,0,0,1,6.77-23.24,52.78,52.78,0,0,1,23.29-19.88l.34-.15a61.42,61.42,0,0,1,19.8-5c1.81-.14,3.61-.22,5.36-.22a63.82,63.82,0,0,1,10.43.86,60.37,60.37,0,0,1,6.85,1.53,57.9,57.9,0,0,1,18.32,8.86,4,4,0,0,1-4.71,6.47A49.89,49.89,0,0,0,328.41,335a53.18,53.18,0,0,0-6-1.33,56.33,56.33,0,0,0-13.83-.56,53.57,53.57,0,0,0-17.31,4.41l-.05,0,0,0a44.89,44.89,0,0,0-19.91,16.88,35.88,35.88,0,0,0-5.55,19,35.12,35.12,0,0,0,2.55,13.11,4,4,0,0,1-2.22,5.2A3.91,3.91,0,0,1,264.61,392.05Zm26.31-54.36h0Zm.92-.46h0Z"/><path class="cls-7" d="M285.28,426.78c-2,0-4,0-6.25-.14-38-1.68-67.42-17.8-68.65-18.49a4,4,0,0,1,0-7A170.25,170.25,0,0,1,264,384.09a148,148,0,0,1,21.24-1.57c2.36,0,4.92,0,7.82.11a4,4,0,0,1-.09,8h-.1c-2.87-.07-5.3-.11-7.63-.11A139.37,139.37,0,0,0,265.19,392a170.29,170.29,0,0,0-43.67,12.64c10.8,4.77,32.55,12.88,57.85,14,2.12.09,4.06.13,5.91.13a245.06,245.06,0,0,0,41-3.19c20.94-3.62,28-9,28-10.94,0-.38-.42-1.15-1.61-2.14a24.82,24.82,0,0,0-6-3.36,98.81,98.81,0,0,0-20.77-5.52c-2.74-.46-5.68-.89-8.71-1.26a4,4,0,1,1,1-7.94c3.16.38,6.21.83,9.09,1.32,9.22,1.58,16.79,3.6,22.52,6a32.19,32.19,0,0,1,8,4.57c3,2.51,4.5,5.29,4.5,8.3,0,10.61-18.82,16.09-34.61,18.82A252.9,252.9,0,0,1,285.28,426.78Z"/><path class="cls-7" d="M188.86,416.25a53.93,53.93,0,0,1-10.7-1,4,4,0,0,1-2-6.75l6.21-6.15-6.31-6.72a4,4,0,0,1,2.41-6.71c19.5-2.44,35.81,12.16,36.5,12.78a4,4,0,0,1,0,5.95C207.09,414.68,196.62,416.25,188.86,416.25Zm-1-8c5.17.11,12-.53,17.73-3.69a46.46,46.46,0,0,0-17-7.37l2.39,2.54a4,4,0,0,1-.11,5.58Z"/><path class="cls-7" d="M267.93,356.33a4,4,0,0,1-4-3.93c-.7-38.23,3-40.09,5.49-41.33,5.5-2.75,12.48,5,23.45,20.39a4,4,0,0,1-5.86,5.39,4.41,4.41,0,0,1-.58-.64c-7.05-9.88-11.12-14.3-13.24-16.25-.9,4.79-1.56,15.65-1.26,32.29a4,4,0,0,1-3.93,4.08Zm6-38.86"/><path class="cls-7" d="M346.57,343.42h0a4,4,0,0,1-4-4h0c.06-15.57-.72-22.73-1.34-25.95-2.58,2.39-7.34,7.84-14.79,18.47a4,4,0,1,1-6.61-4.5c17-24.25,21.6-24.64,25.19-22.85,3.1,1.56,5.66,5.25,5.55,34.84A4,4,0,0,1,346.57,343.42Zm-6-32.43Z"/><path class="cls-7" d="M311.39,393.7a4,4,0,0,1-2.87-6.78,4.78,4.78,0,0,0-3.16-1,4.72,4.72,0,0,0-3.19,1,4,4,0,0,1-6.93,4,7,7,0,0,1-.47-.89,7.62,7.62,0,0,1-.68-3.12c0-5,5-9,11.27-9s11.27,3.95,11.27,9a8,8,0,0,1-2.39,5.59A4,4,0,0,1,311.39,393.7Z"/><path class="cls-7" d="M306,396.63a21.6,21.6,0,0,1-12.46-3.71,14.49,14.49,0,0,1-3.84-4,4,4,0,0,1,6.8-4.22,6.2,6.2,0,0,0,1.72,1.76,13.66,13.66,0,0,0,7.78,2.21,15.42,15.42,0,0,0,4.71-.7,9.94,9.94,0,0,0,4.06-2.34,4,4,0,0,1,5.7,5.62,18.19,18.19,0,0,1-7.32,4.34A23.59,23.59,0,0,1,306,396.63Z"/><path class="cls-7" d="M287.44,376a7,7,0,1,1,6.47-7A6.78,6.78,0,0,1,287.44,376Zm0-8a1.49,1.49,0,0,0-1.53,1,1.67,1.67,0,0,0,3,0A1.47,1.47,0,0,0,287.44,368Z"/><path class="cls-7" d="M323.5,376a7,7,0,1,1,6.47-7A6.78,6.78,0,0,1,323.5,376Zm0-8a1.49,1.49,0,0,0-1.53,1,1.46,1.46,0,0,0,1.53,1,1.44,1.44,0,0,0,1.52-1A1.47,1.47,0,0,0,323.5,368Z"/><path class="cls-7" d="M240.53,544.7a47.34,47.34,0,0,1-9.33-.79c-3.93-.77-6.71-2.16-8.48-4.24a12.71,12.71,0,0,1-3.26-9.87c.34-3,3-13.17,22.49-16.63,1-.18,4.76-1.53,10.63-11.51,4-6.87,8.21-16.29,12-27.24,7.23-20.71,11.8-42.73,10.62-51.22a5.28,5.28,0,0,1,0-.55,4,4,0,0,1,8-.43c1.47,11.09-4.41,35.95-11,54.84-12,34.27-22.28,42.84-28.83,44-10.46,1.85-15.54,6.18-15.93,9.65a4.9,4.9,0,0,0,1.39,3.77c.41.48,1.66,1.14,4,1.6a39.58,39.58,0,0,0,8,.63,128.62,128.62,0,0,0,19.34-1.86c6.26-4.93,49.68-39.94,67.11-76.17a4,4,0,0,1,7.21,3.46c-8.23,17.11-22.56,35.73-42.59,55.33a332.19,332.19,0,0,1-27.63,24.33,3.91,3.91,0,0,1-1.69.75,137,137,0,0,1-21.72,2.16Z"/><path class="cls-7" d="M232,544a4,4,0,0,1-3.86-2.94,14.82,14.82,0,0,1,2-12.72,15.65,15.65,0,0,1,10.3-6.32,4,4,0,1,1,1.29,7.89,7.7,7.7,0,0,0-5.06,3,6.9,6.9,0,0,0-.85,6,4,4,0,0,1-2.8,4.91A3.91,3.91,0,0,1,232,544Z"/><path class="cls-7" d="M240.76,544a4,4,0,0,1-3.9-3.15,9.41,9.41,0,0,1,1.5-7.47,14.05,14.05,0,0,1,9.14-5.6c.31-.06.66-.1,1-.13a4,4,0,0,1,.72,8l-.37,0a6.24,6.24,0,0,0-3.87,2.22,1.51,1.51,0,0,0-.29,1.28,4,4,0,0,1-3.07,4.75A3.56,3.56,0,0,1,240.76,544Z"/><path class="cls-7" d="M540.75,541.78a37,37,0,0,1-11.16-1.39,13.7,13.7,0,0,1-2.86-1.26,10.23,10.23,0,0,1-5.3-8.44c-.28-5.56,3.89-11.51,10.88-15.5,5-2.87,9.21-11.35,11.8-23.87a132.64,132.64,0,0,0,2.19-15.43c-1.27-.07-2.76-.19-4.44-.36l-1-.12c-22.88-2.59-35.26-11.27-41.61-18.1a39.26,39.26,0,0,1-3.45-4.23,173.3,173.3,0,0,1-29.54,12.08c-12.91,3.89-24.87,5.63-35.55,5.15a4,4,0,1,1,.36-8c9.78.44,20.84-1.19,32.88-4.82a163.22,163.22,0,0,0,31.19-13.17,4,4,0,0,1,3-.41,4,4,0,0,1,2.44,1.88,32.58,32.58,0,0,0,4.48,6.05c10.36,11.15,27.45,14.57,36.72,15.62l.88.1a71.81,71.81,0,0,0,7.82.44,3.91,3.91,0,0,1,2.92,1.2,4,4,0,0,1,1.15,2.94c-.14,4.12-1.85,40.6-18.28,50-4.63,2.65-6.95,6.12-6.85,8.18,0,.35.05,1.13,1.4,1.93a5.83,5.83,0,0,0,1.22.53c4.24,1.38,13.5,1.26,22-.19,5.8-1,11.19-7.47,15.19-18.23,7.43-20,6.75-44.35,2.37-49.65-6.06-7.34-5.28-16.23-4.52-24.83.92-10.54,1.88-21.44-8.12-32.55a4,4,0,0,1,3-6.68c2.82,0,5,2.17,10.21,7.42,10.51,10.54,32.36,32.47,65.53,37.91,26.25,4.3,35.58,1.75,38.79-1.15,1.77-1.59,2.42-4,2.17-8-.35-5.83-2.73-8.56-10.58-12.2-.68-.32-1.39-.63-2.13-1-2.51-1.08-5.34-2.21-8.63-3.51a344.31,344.31,0,0,1-31.68-14,356.47,356.47,0,0,1-46.58-28.82c-9-6.48-18.36-13.76-27.83-21.63a53.72,53.72,0,0,0-8.17-5.57c-30.25-17-82.44-11.55-119-6-15.31,2.3-30.55,5.1-44,7.56l-3.67.68c-6.76,1.25-12.45,2.27-17.41,3.13a4,4,0,1,1-1.37-7.88c4.93-.85,10.6-1.87,17.33-3.12l3.68-.67c13.5-2.48,28.8-5.29,44.23-7.61,78.89-11.94,108.65-1.76,124.16,6.94a62.06,62.06,0,0,1,9.38,6.4c9.33,7.75,18.54,14.92,27.39,21.29A347.57,347.57,0,0,0,629.27,399a333.64,333.64,0,0,0,31,13.72c3.35,1.33,6.24,2.48,8.86,3.61l2.32,1c8.92,4.14,14.57,8.75,15.2,19,.25,4.09,0,10-4.79,14.39C675,457,661,457.91,636.4,453.87c-28.34-4.64-48.72-20.18-61.48-32,1.2,6.68.64,13,.14,18.67-.7,7.94-1.25,14.22,2.73,19,7.9,9.57,5.93,38.79-1,57.53-5.11,13.76-12.49,21.82-21.34,23.33A89.42,89.42,0,0,1,540.75,541.78Z"/><path class="cls-7" d="M420.75,548.77a44,44,0,0,1-4.5-.23,30.4,30.4,0,0,1-8.79-2.11,12.88,12.88,0,0,1-4.48-3,9.61,9.61,0,0,1-1.74-10.52,20.89,20.89,0,0,1,4.43-6.56c-3.05-15.53-9.71-37.39-16.08-41.24-2.42-1.47-8.85-3.68-13.48-5.21-3.54-1.18-7.53-2.45-11.75-3.79-9.16-2.91-19.55-6.22-29.16-9.75-2-.73-4-1.48-5.87-2.22-4.77-1.86-9-3.72-12.65-5.52a66.16,66.16,0,0,1-9.29-5.43,4,4,0,1,1,4.67-6.49,59.26,59.26,0,0,0,8.16,4.75c3.42,1.7,7.47,3.46,12,5.24,1.82.73,3.72,1.45,5.67,2.15,9.48,3.48,19.77,6.76,28.86,9.65,4.24,1.35,8.25,2.62,11.83,3.81,8.27,2.74,12.65,4.47,15.11,6,12.39,7.49,19.45,44.57,20.21,48.77a4,4,0,0,1-1.38,3.79,15.32,15.32,0,0,0-3.87,5c-.55,1.41-.15,1.84.17,2.19a5.1,5.1,0,0,0,1.76,1.09,23.12,23.12,0,0,0,6.45,1.51c7.71.78,14.4-1,16.32-3.06,2.4-4.85,2.08-41.68-7.4-69.92a70.54,70.54,0,0,0-7.06-15.53,4,4,0,0,1,6.74-4.31,78.85,78.85,0,0,1,7.91,17.3c9.42,28.05,11.67,70.79,6,77.5C435.92,547,428.11,548.77,420.75,548.77Zm12.73-11.34h0Z"/><path class="cls-7" d="M490.48,535.26c-8.41,0-11.16-1.71-12.38-4.26a18.38,18.38,0,0,1-.22-14.52,13.22,13.22,0,0,1,8.93-7.31c2.86-.77,7.74-8.84,11.12-20.14-11.44-4.08-23.43-12.43-35.71-24.89a4,4,0,1,1,5.69-5.62c12.66,12.84,24.75,20.91,36,24a4,4,0,0,1,2.82,4.84c-1.13,4.44-7.27,26.7-17.8,29.53a5.27,5.27,0,0,0-3.74,2.94,10.39,10.39,0,0,0-.13,7c1,.28,4.07.76,11.62.2,5.39-.39,10.78-1.14,13-1.51,4.21-3.25,22.06-28.91,27.77-54.9a4,4,0,0,1,7.82,1.71c-3.69,16.8-12,32.52-16.59,40.39-3.45,5.88-12,19.67-17,20.58-2,.36-8.12,1.26-14.39,1.71C494.64,535.17,492.41,535.26,490.48,535.26Zm18.92-9.59Z"/><path class="cls-7" d="M327,423.53a4,4,0,0,1-3.71-2.49c-.33-.83-8.14-20.43-.12-33.44a4,4,0,0,1,6.81,4.2c-4.91,8-1.14,21.63.72,26.23a4,4,0,0,1-3.7,5.5Z"/><path class="cls-7" d="M336.73,406.26a5,5,0,1,1,4.77-5A4.85,4.85,0,0,1,336.73,406.26Z"/><path class="cls-7" d="M409.05,546.76a4,4,0,0,1-4-4c0-1.77,1.8-8.92,7.52-11.74.32-.15.58-.27.85-.38a4,4,0,1,1,2.91,7.45l-.28.13c-1.66.82-2.82,3.73-3,4.77A4,4,0,0,1,409.05,546.76Zm4-4v0Z"/><path class="cls-7" d="M416.66,548.57a4,4,0,0,1-4-4c0-4.52,4-9.42,8.94-10.91a4,4,0,0,1,2.33,7.65,5,5,0,0,0-3.27,3.27A4,4,0,0,1,416.66,548.57Z"/><path class="cls-7" d="M488,533.8a4,4,0,0,1-3.94-3.34c-1-6,1.37-13.47,9-15.64a4,4,0,1,1,2.2,7.69c-3.32,1-3.63,4.61-3.29,6.63a4,4,0,0,1-3.29,4.6A3.68,3.68,0,0,1,488,533.8Z"/><path class="cls-7" d="M496.94,535h0a4,4,0,0,1-4-4h0a18.92,18.92,0,0,1,2.65-8.35c1.49-2.61,4-5.84,7.68-6.42a4,4,0,0,1,1.35,7.88c-1.32.59-3.68,5-3.68,6.9A4,4,0,0,1,496.94,535Zm7.6-10.88Z"/><path class="cls-7" d="M530.84,540.59l-.41,0a4,4,0,0,1-3.57-4.39,16.55,16.55,0,0,1,2.66-7.66,14.83,14.83,0,0,1,8.43-6.08,4,4,0,0,1,1.78,7.8,7,7,0,0,0-3.57,2.73,8.75,8.75,0,0,0-1.34,4A4,4,0,0,1,530.84,540.59Z"/><path class="cls-7" d="M540.75,541.78a4,4,0,0,1-4-4c0-4.45,3.13-8.91,7.79-11.08a14.23,14.23,0,0,1,1.89-.73,4,4,0,1,1,2.34,7.65,6,6,0,0,0-.85.33c-2,.91-3.17,2.7-3.17,3.83A4,4,0,0,1,540.75,541.78Z"/></g></svg>