<?xml version="1.0" standalone="no"?><!DOCTYPE svg PUBLIC "-//W3C//DTD SVG 1.1//EN" "http://www.w3.org/Graphics/SVG/1.1/DTD/svg11.dtd"><svg t="1625730552470" class="icon" viewBox="0 0 1024 1024" version="1.1" xmlns="http://www.w3.org/2000/svg" p-id="1357" width="200" height="200" xmlns:xlink="http://www.w3.org/1999/xlink"><defs><style type="text/css"></style></defs><path d="M768 597.333333c0 47.061333-38.272 85.333333-85.333333 85.333334h-256c-47.061333 0-85.333333-38.272-85.333334-85.333334s38.272-85.333333 85.333334-85.333333h341.333333v85.333333z m-170.666667-346.922666l61.653334 41.088a42.666667 42.666667 0 0 0 47.36 0L768 250.410667V426.666667h-170.666667V250.410667z m233.472-117.376a42.666667 42.666667 0 0 0-43.818666 2.133333L682.666667 204.714667l-104.32-69.546667A42.581333 42.581333 0 0 0 512 170.666667v256h-85.333333a169.216 169.216 0 0 0-111.701334 42.666666H298.666667c-23.509333 0-42.666667-19.157333-42.666667-42.666666V341.333333c0-23.509333 19.157333-42.666667 42.666667-42.666666 23.509333 0 42.666667 19.157333 42.666666 42.666666a42.666667 42.666667 0 0 0 85.333334 0c0-70.570667-57.429333-128-128-128S170.666667 270.762667 170.666667 341.333333v85.333334c0 58.410667 39.552 107.264 93.098666 122.538666A168.106667 168.106667 0 0 0 256 597.333333c0 43.605333 16.896 82.986667 43.904 113.194667l-79.402667 119.125333a42.666667 42.666667 0 0 0 70.997334 47.36l79.402666-119.125333c4.309333 1.493333 8.661333 2.901333 13.098667 4.053333V853.333333a42.666667 42.666667 0 0 0 85.333333 0v-85.333333h85.333334v85.333333a42.666667 42.666667 0 0 0 85.333333 0v-85.333333h42.666667v85.333333a42.666667 42.666667 0 0 0 85.333333 0v-109.098666c50.773333-29.568 85.333333-84.010667 85.333333-146.901334V170.666667a42.666667 42.666667 0 0 0-22.528-37.632z" fill="#ffffff" p-id="1358" data-spm-anchor-id="a313x.7781069.0.i1" class="selected"></path></svg>