<?xml version="1.0" standalone="no"?><!DOCTYPE svg PUBLIC "-//W3C//DTD SVG 1.1//EN" "http://www.w3.org/Graphics/SVG/1.1/DTD/svg11.dtd"><svg t="1625730835890" class="icon" viewBox="0 0 1024 1024" version="1.1" xmlns="http://www.w3.org/2000/svg" p-id="4168" xmlns:xlink="http://www.w3.org/1999/xlink" width="200" height="200"><defs><style type="text/css"></style></defs><path d="M207.4 623.4l0.2-0.2c25.2-10.2 44.6-30.2 56.2-58 17.6-42.2 15.2-98.6-6.6-151.2-30.2-72.6-89.4-121.6-147.4-121.6-12.4 0-24.4 2.2-35.8 6.8l-0.2 0.2c-25.2 10-44.6 30.2-56.2 58-17.6 42.2-15.2 98.6 6.6 151.2 30.2 72.6 89.4 121.6 147.4 121.6 12.4 0 24.2-2.4 35.8-6.8z m425.2-205.2c4.4 0.6 8.8 1 13.4 1 32.8 0 64.6-17.4 89.6-48.8 22.4-28 37.8-65.8 43.8-106.4 14-96.4-28.6-179.8-96.8-189.8-4.4-0.6-8.8-1-13.4-1-32.8 0-64.6 17.4-89.6 48.8-22.4 28-38 65.8-43.8 106.4-14 96.4 28.4 179.8 96.8 189.8z m-344.2-47.8c25.2 31.4 57 48.8 89.6 48.8 4.4 0 9-0.4 13.4-1 68.2-10 110.8-93.4 96.8-189.8-5.8-40.6-21.4-78.4-43.8-106.4-25-31.4-57-48.8-89.6-48.8-4.4 0-9 0.4-13.4 1-68.2 10-110.8 93.4-96.8 189.8 5.8 40.6 21.4 78.4 43.8 106.4z m488.4 296.8c-33.2-20-64.4-38.8-85-72.6-56.4-93.6-90.6-150.2-180-150.2s-123.6 56.6-180.2 150.2c-20.6 33.8-51.8 52.8-85.2 72.8-38.2 23-77.4 46.6-94.4 93.2-6.6 17-10 34.6-9.8 52.8 0 75.8 59 137.6 131.6 137.6 37.4 0 77.2-13 119.4-26.8 40.6-13.2 82.4-26.8 118.6-26.8 36.2 0 78 13.6 118.4 26.8 42 13.6 81.8 26.6 119.2 26.6 72.4 0 131.4-61.6 131.4-137.6 0-18.2-3.2-35.8-10-52.8-16.4-46.6-55.8-70.2-94-93.2z m229.6-309.8c-11.8-27.8-31.2-47.8-56.2-58l-0.4-0.2c-11.6-4.6-23.4-6.8-35.8-6.8h-1.4c-57.4 0.8-116.2 49.6-146 121.6-21.8 52.6-24.4 109-6.8 151.2 11.6 27.8 31.2 48 56.4 58l0.2 0.2c11.6 4.6 23.4 6.8 35.8 6.8 58 0 117.2-48.8 147.6-121.6 22-52.6 24.4-109 6.6-151.2z" p-id="4169" fill="#ffffff"></path></svg>