<svg id="图层_1" data-name="图层 1" xmlns="http://www.w3.org/2000/svg" xmlns:xlink="http://www.w3.org/1999/xlink" width="750" height="1125" viewBox="0 0 750 1125">
  <defs>
    <clipPath id="clip-path">
      <path d="M531.2,389.7s16.8,3.6,18,12-8.5,26.9-4.8,36.2,6,10.8,15.7,9.6,7.2-12.1,14.4-16.9,43.4-15.6,32.6-39.7-43.4-27.7-43.4-27.7l-47,19.2Z" fill="none" clip-rule="evenodd"/>
    </clipPath>
    <clipPath id="clip-path-2">
      <ellipse cx="112.5" cy="337.8" rx="76.5" ry="60.9" fill="none"/>
    </clipPath>
    <clipPath id="clip-path-3">
      <path d="M330.4,554.6c-6.5-.9-71.9-23.2-85.2-41.9s.6-105.2-18.9-136.8c-3.1-5-47.4-47.9-89.8-43.7-5.5.6-11.4,8.4-16.1,17.7-5.9,12,0,26.7,12.4,30.4,14.2,4.3,42.4,15.1,56.1,19.2,7.3,2.2,14.1,55,19.5,95.7,3.6,27.7,22,50.8,47.3,59.5l67.5,23.4Z" fill="none" clip-rule="evenodd"/>
    </clipPath>
    <clipPath id="clip-path-4">
      <path d="M330.7,560c-6.5-.9-71.9-23.1-85.2-41.9s.6-105.2-18.9-136.8c-3.1-5-47.4-47.9-89.8-43.7-5.5.6-11.4,8.4-16.1,17.8-5.9,11.9,0,26.6,12.4,30.3,14.2,4.3,42.4,15.1,56.1,19.2,7.3,2.2,14.1,55,19.5,95.7,3.6,27.7,22,50.8,47.3,59.5l67.5,23.4Z" fill="none" clip-rule="evenodd"/>
    </clipPath>
    <clipPath id="clip-path-5">
      <path d="M229.9,346.3s-39.3,25.2-26.4,50c4.5,8.7,17.8,5.4,21.6,5.1,8.5-.6,17.5-.6,28.4-40.4S229.9,346.3,229.9,346.3Z" fill="none" clip-rule="evenodd"/>
    </clipPath>
    <clipPath id="clip-path-6">
      <path d="M345.1,502.4c-.9,3.6,35.7,52.1,29.4,64.4-8.3,16.2-14.6,13.4-25.4,7-8.5-5.1-33.1-45.4-32.1-51.7S345.1,502.4,345.1,502.4Z" fill="none" clip-rule="evenodd"/>
    </clipPath>
    <clipPath id="clip-path-7">
      <path d="M407.5,470.5c-.9,3.6,33.3,60,27.1,72.3-8.1,16.3-21.7.9-32.5-9.9-7.1-7.1-23.5-36.2-22.6-42.5S407.5,470.5,407.5,470.5Z" fill="none" clip-rule="evenodd"/>
    </clipPath>
    <clipPath id="clip-path-8">
      <path d="M447.7,447.6c-.9,3.7,24.4,19,32.6,35.3,9.7,19.5-3.7,52.4-13.6,41.5-6.7-7.3-37-53.3-36.1-59.6S447.7,447.6,447.7,447.6Z" fill="none" clip-rule="evenodd"/>
    </clipPath>
  </defs>
  <title>参赛作品示例 (1)</title>
  <g>
    <path d="M252.2,620.1S228,654,228.3,662.5a92.8,92.8,0,0,0,1.4,14.5l5.6,2.2-.5,6.7s7.1,3.1,9.7-.1L283.2,641s18.2-18.2,48-27-54.1-26.9-54.1-26.9Z" fill="#e2e7ed" fill-rule="evenodd"/>
    <path d="M547.2,559.9a54.8,54.8,0,0,0,29.9-9.9,281,281,0,0,1,61.1-32.1c19.5-7.3,39.7-16.2,41.5-22.2a149.3,149.3,0,0,0,4-16.8A6.2,6.2,0,0,0,682,473l-.3-.2a6.5,6.5,0,0,1-1.4-7.2h0c1.2-2.9.3-6.2-2.1-7.6s-5.5-2.6-8-.9c-4.4,3.2-87.9,54.3-146.9,40-35-8.5,21.6,64.2,23.3,62.8Z" fill="#e2e7ed" fill-rule="evenodd"/>
    <path d="M588.6,385.3c10.6,7.8,16.1,20.2,27.3,25.4,4.9,2.3-.3,13.1-.4,17.2-.8,22,2.3,38.3-9.8,56.2-21.4,31.8-63.7,39.2-94.5,16.4s-38.4-67-17-98.9S557.8,362.5,588.6,385.3Z" fill="#abb9cc" fill-rule="evenodd"/>
    <path d="M330.4,553.9c-6.5-1-71.9-23.2-85.2-42s.6-105.1-18.9-136.7c-3.1-5-47.4-48-89.8-43.7-5.5.5-11.4,8.3-16.1,17.7-5.9,11.9,0,26.6,12.4,30.3,14.2,4.3,42.4,15.1,56.1,19.3,7.3,2.1,14.1,55,19.5,95.6,3.6,27.7,22,50.8,47.3,59.6l67.5,23.3Z" fill="#abb9cc" fill-rule="evenodd"/>
    <path d="M652.1,432.4l-.3-.2a6.4,6.4,0,0,1-2.6-6.8h0c.6-3.1-.8-6.2-3.3-7.2s-5.9-1.4-8,.7-35.2,31.9-74.4,50.7a64.7,64.7,0,0,1-18.1,5.8C518,459.5,486.6,448,486.6,448s-65.7,39.9-216.8,95.7c-1.6.7-1.2,4.4.5,9.9l-1.9,2.2a257.5,257.5,0,0,1-58.9,49.5c-16.1,9.9-32.5,21.2-33.1,26.7s-.7,12.1-.7,15.4a5.4,5.4,0,0,0,2.6,4.8l.3.2a5.6,5.6,0,0,1,2.5,6c-.5,2.8.8,5.5,3.2,6.3s5.4,1.2,7.2-.7,58.4-38.7,109.1-46.2c25.2,8.5,117.2-.5,156.1-14.1,101.5-35.5,102.4-41.8,126-77.7a13.5,13.5,0,0,0,1.9-3.8c8.7-14.3,15.4-27.6,32-37.6s36.3-23.3,37-29.5a152.2,152.2,0,0,0,1.2-17.3A5.9,5.9,0,0,0,652.1,432.4Z" fill="#abb9cc" fill-rule="evenodd"/>
    <path d="M496,398.8c7.2-6.4,13.7-63.7,46.6-80.5,3.6-1.9,17,63.4,14,67.3S496,398.8,496,398.8Z" fill="#abb9cc" fill-rule="evenodd"/>
    <path d="M528.3,377.4c7.2-6.4,10.7-50.1,14.5-48.5s11.6,36.6,8.6,40.5S528.3,377.4,528.3,377.4Z" fill="#626f80" fill-rule="evenodd"/>
    <path d="M652.2,432.3l-.3-.2a6.3,6.3,0,0,1-2.6-6.8h0c.6-3.1-.8-6.2-3.4-7.2s-5.8-1.4-7.9.7l-4.8,4.3c4.5,5.1,8.4,10.4,8,13.2-.9,6.3-69.8,74.5-75.9,77.7-17.2,9-66,34.3-90.4,51.5-37.3,26.2-118.3,27.1-147.3,26.2-10.1-.3-38.8,15.3-70.4,10.8-4.8-.7-14.1-6.5-23.8-13.8a240.5,240.5,0,0,1-23.8,16.5c-16.1,9.9-32.6,21.2-33.1,26.7s-.7,12.1-.7,15.4a5.4,5.4,0,0,0,2.6,4.8l.3.2a5.8,5.8,0,0,1,2.5,6c-.5,2.8.8,5.5,3.2,6.3s5.4,1.2,7.2-.7,58.4-38.7,109.1-46.2c25.2,8.5,117.2-.5,156.1-14.1,101.5-35.5,102.4-41.7,126-77.7a16.9,16.9,0,0,0,1.9-3.8c8.7-14.3,15.4-27.6,32-37.6s36.3-23.3,37-29.5a152.2,152.2,0,0,0,1.2-17.3A6.2,6.2,0,0,0,652.2,432.3Z" fill="#fff" fill-rule="evenodd"/>
    <g clip-path="url(#clip-path)">
      <ellipse cx="548.1" cy="447.1" rx="67.8" ry="70.9" transform="translate(-66.4 96.8) rotate(-9.5)" fill="#626f80"/>
    </g>
    <g clip-path="url(#clip-path-2)">
      <path d="M330.5,553.8c-6.6-.9-72-23.2-85.3-42s.6-105.1-18.9-136.7c-3.1-5-47.4-48-89.8-43.7-5.5.6-11.4,8.3-16.1,17.7-5.9,12,0,26.7,12.4,30.4,14.2,4.3,42.4,15.1,56.2,19.2,7.2,2.2,14,55,19.4,95.7,3.6,27.7,22,50.7,47.3,59.5l67.6,23.3Z" fill="#626f80" fill-rule="evenodd"/>
    </g>
    <ellipse cx="586.6" cy="405.7" rx="9.8" ry="17.9" transform="translate(-126.4 388.1) rotate(-33.3)" fill="#f9f9f9" stroke="#110f0e" stroke-miterlimit="10"/>
    <ellipse cx="588.6" cy="403.9" rx="6.2" ry="14.9" transform="translate(-125.1 388.9) rotate(-33.3)" fill="#110f0e"/>
    <path d="M614.9,438.2c-2.7,0-38,29.3-57.8,24.8s-58.8-11.3-64.2-8.6" fill="none" stroke="#2d1805" stroke-linecap="round" stroke-linejoin="round" fill-rule="evenodd"/>
    <path d="M648.1,431.2c-2.7,0-11.1,11.5-27.1,18" fill="none" stroke="#2d1805" stroke-linecap="round" stroke-linejoin="round" fill-rule="evenodd"/>
    <path d="M650.8,443.8c-2.7,0-11.1,11.5-27.1,18.1" fill="none" stroke="#2d1805" stroke-linecap="round" stroke-linejoin="round" fill-rule="evenodd"/>
    <path d="M213,620.9c-2.7,0-11.1,11.5-27.1,18.1" fill="none" stroke="#2d1805" stroke-linecap="round" stroke-linejoin="round" fill-rule="evenodd"/>
    <path d="M215.7,633.6c-2.7,0-11,11.5-27.1,18" fill="none" stroke="#2d1805" stroke-linecap="round" stroke-linejoin="round" fill-rule="evenodd"/>
    <path d="M673.9,467.1c-2.8,0-11.1,11.5-27.2,18" fill="none" stroke="#2d1805" stroke-linecap="round" stroke-linejoin="round" fill-rule="evenodd"/>
    <path d="M676.6,479.7c-2.7,0-11.1,11.5-27.1,18.1" fill="none" stroke="#2d1805" stroke-linecap="round" stroke-linejoin="round" fill-rule="evenodd"/>
    <path d="M251,641.8c-2.4,1.2-5.1,15.1-16.9,27.9" fill="none" stroke="#683400" stroke-miterlimit="10" fill-rule="evenodd"/>
    <path d="M258.8,652.1c-2.4,1.2-5.1,15.2-16.9,27.9" fill="none" stroke="#683400" stroke-miterlimit="10" fill-rule="evenodd"/>
    <g clip-path="url(#clip-path-3)">
      <path d="M245.9,523.6s14.8-8.9,27.7-15.6c4.1-2.1-8.7-13.3-11.7-13.5s-13.5-5.4-28.8,13.6S245.9,523.6,245.9,523.6Z" fill="#626f80" fill-rule="evenodd"/>
    </g>
    <g clip-path="url(#clip-path-4)">
      <path d="M245.6,431.2A155.8,155.8,0,0,1,226,442.4c-20.7,9.3-8.1,19.1-4.8,19.2s22.9,2.1,28.6-6.9C254.7,447.2,245.6,431.2,245.6,431.2Z" fill="#626f80" fill-rule="evenodd"/>
    </g>
    <g clip-path="url(#clip-path-5)">
      <path d="M330.4,553.9c-6.6-1-72-23.2-85.3-42s.7-105.1-18.9-136.7c-3.1-5-47.4-48-89.7-43.7-5.5.5-11.5,8.3-16.1,17.7-6,11.9,0,26.6,12.3,30.3,14.3,4.3,42.4,15.2,56.2,19.3,7.3,2.1,14.1,55,19.4,95.6,3.7,27.7,22,50.8,47.3,59.6l67.6,23.3Z" fill="#626f80" fill-rule="evenodd"/>
    </g>
    <g clip-path="url(#clip-path-6)">
      <path d="M643.9,438.2l-.3-.2a6.3,6.3,0,0,1-2.5-6.8h0c.7-3.1-.7-6.2-3.3-7.2s-5.9-1.5-8,.6-35.3,31.7-74.7,50.3a67.2,67.2,0,0,1-18.2,5.6c-27.3-16.1-58.5-27.9-58.5-27.9s-66.1,39.5-217.5,94.3c-1.7.6-1.2,4.3.4,9.9l-2,2.1A255.1,255.1,0,0,1,200.1,608c-16.1,9.7-32.7,21-33.2,26.5a152.7,152.7,0,0,0-.9,15.4,5.5,5.5,0,0,0,2.6,4.8l.3.2a5.6,5.6,0,0,1,2.4,6c-.5,2.7.9,5.5,3.2,6.3s5.4,1.3,7.3-.6,58.6-38.3,109.3-45.5c25.2,8.7,117.2.4,156.2-12.9,101.8-34.8,102.8-41.1,126.6-76.9a16.3,16.3,0,0,0,1.9-3.7c8.8-14.3,15.6-27.5,32.3-37.4s36.4-23,37.2-29.2a157.6,157.6,0,0,0,1.3-17.3A6,6,0,0,0,643.9,438.2Z" fill="#626f80" fill-rule="evenodd"/>
    </g>
    <g clip-path="url(#clip-path-7)">
      <path d="M654.4,431.3l-.4-.2c-2.1-1.2-3.1-4-2.5-6.8h0c.6-3.1-.8-6.2-3.4-7.1s-5.9-1.5-8,.6-35.1,31.9-74.3,50.8a71.4,71.4,0,0,1-18.2,5.8c-27.4-15.9-58.7-27.5-58.7-27.5s-65.8,39.9-216.8,95.8c-1.7.6-1.2,4.4.5,9.9l-2,2.2a257.4,257.4,0,0,1-58.8,49.5c-16.1,9.8-32.6,21.2-33.1,26.7a118.9,118.9,0,0,0-.7,15.4,5.5,5.5,0,0,0,2.6,4.8h.3a5.9,5.9,0,0,1,2.5,6,5.5,5.5,0,0,0,3.2,6.4c2.4.8,5.4,1.2,7.2-.8s58.3-38.6,109.1-46.2c25.2,8.5,117.2-.4,156-14,101.6-35.6,102.5-41.8,126.1-77.8a19.3,19.3,0,0,0,1.9-3.8c8.7-14.2,15.4-27.5,32-37.5s36.3-23.3,37-29.5,1.1-13.6,1.2-17.3A6.5,6.5,0,0,0,654.4,431.3Z" fill="#626f80" fill-rule="evenodd"/>
    </g>
    <g clip-path="url(#clip-path-8)">
      <path d="M644,436.5l-.4-.3a6.3,6.3,0,0,1-2.5-6.7h0c.6-3.2-.8-6.3-3.4-7.2s-5.9-1.5-7.9.7-35.2,31.8-74.4,50.7a71.4,71.4,0,0,1-18.2,5.8c-27.4-15.9-58.7-27.5-58.7-27.5s-65.7,40-216.8,95.8c-1.7.6-1.2,4.4.5,9.9l-2,2.2a257.4,257.4,0,0,1-58.8,49.5c-16.1,9.8-32.6,21.2-33.1,26.7a140.5,140.5,0,0,0-.7,15.4,5.5,5.5,0,0,0,2.6,4.8l.3.2a5.7,5.7,0,0,1,2.5,5.9,5.4,5.4,0,0,0,3.2,6.4c2.4.8,5.4,1.2,7.2-.7s58.4-38.7,109.1-46.3c25.2,8.5,117.2-.4,156-14C550.1,572.3,551,566,574.6,530a21.6,21.6,0,0,0,1.9-3.7c8.7-14.3,15.4-27.6,32-37.6s36.3-23.3,37-29.5,1.1-13.6,1.2-17.3A6.2,6.2,0,0,0,644,436.5Z" fill="#626f80" fill-rule="evenodd"/>
    </g>
  </g>
</svg>
